<?xml version="1.0" standalone="no"?><!DOCTYPE svg PUBLIC "-//W3C//DTD SVG 1.1//EN" "http://www.w3.org/Graphics/SVG/1.1/DTD/svg11.dtd"><svg t="1716172397595" class="icon" viewBox="0 0 1024 1024" version="1.1" xmlns="http://www.w3.org/2000/svg" p-id="2789" xmlns:xlink="http://www.w3.org/1999/xlink" width="200" height="200"><path d="M864.448 73.152c21.504 18.176 38.592 33.28 51.328 45.312 12.8 11.968 22.528 22.208 29.312 30.528 6.784 8.384 10.88 15.488 12.544 21.312 1.6 5.76 2.368 10.88 2.368 15.296v17.472h-176.832a30.016 30.016 0 0 1-20.864-8.192 73.28 73.28 0 0 1-14.976-19.136 98.368 98.368 0 0 1-11.904-40.32V0h3.584c6.4 0 12.928 0.896 19.712 2.752 6.72 1.792 14.528 5.248 23.296 10.368 8.704 5.12 19.712 12.352 32.832 21.76 13.12 9.536 29.632 22.272 49.6 38.272z m-204.288 63.36c0 14.528 2.368 29.632 7.168 45.248 4.736 15.68 12.352 30.208 22.656 43.648 10.368 13.44 23.488 24.576 39.424 33.28 16 8.768 34.688 13.12 56.192 13.12H960v615.68c0 21.12-4.608 40.064-13.76 56.832a134.72 134.72 0 0 1-36.416 42.56 182.528 182.528 0 0 1-50.176 27.328 159.168 159.168 0 0 1-53.76 9.792H218.112c-15.104 0-31.68-4.032-49.6-12.032a211.2 211.2 0 0 1-50.176-31.616 187.008 187.008 0 0 1-38.784-44.8A98.176 98.176 0 0 1 64 883.2V140.8c0-15.232 3.84-31.104 11.328-47.488A167.68 167.68 0 0 1 106.432 48.064c13.12-13.888 28.032-25.344 44.8-34.432C167.936 4.544 185.472 0 203.776 0h456.32v136.448z m75.264 681.152c20.672 0 38.208-6.72 52.544-20.16 14.336-13.44 21.504-29.696 21.504-48.64a62.592 62.592 0 0 0-21.504-48 75.072 75.072 0 0 0-52.544-19.648h-448c-20.736 0-38.272 6.528-52.608 19.648a62.592 62.592 0 0 0-21.504 48c0 18.944 7.168 35.2 21.504 48.64 14.336 13.44 31.872 20.16 52.608 20.16h448z m74.048-340.608c0-18.88-7.168-35.136-21.504-48.576a73.92 73.92 0 0 0-52.544-20.16h-448c-20.736 0-38.272 6.72-52.608 20.16-14.336 13.44-21.504 29.632-21.504 48.64 0 18.88 7.168 34.88 21.504 48 14.336 13.056 31.872 19.648 52.608 19.648h448c20.672 0 38.208-6.592 52.544-19.648a62.592 62.592 0 0 0 21.504-48z" p-id="2790"></path></svg>